<svg width="20" height="26" viewBox="0 0 20 26" fill="none" xmlns="http://www.w3.org/2000/svg">
<path d="M12.1875 0.5H7.8125C7.1207 0.500021 6.45318 0.755009 5.93755 1.21621C5.42193 1.67742 5.09437 2.31249 5.0175 3H2.8125C2.06658 3 1.35121 3.29632 0.823762 3.82376C0.296316 4.35121 0 5.06658 0 5.8125V22.6875C0 23.4334 0.296316 24.1488 0.823762 24.6762C1.35121 25.2037 2.06658 25.5 2.8125 25.5H17.1875C17.5568 25.5 17.9226 25.4273 18.2638 25.2859C18.605 25.1446 18.9151 24.9374 19.1762 24.6762C19.4374 24.4151 19.6446 24.105 19.7859 23.7638C19.9273 23.4226 20 23.0568 20 22.6875V5.8125C20 5.44316 19.9273 5.07743 19.7859 4.7362C19.6446 4.39497 19.4374 4.08493 19.1762 3.82376C18.9151 3.5626 18.605 3.35543 18.2638 3.21409C17.9226 3.07275 17.5568 3 17.1875 3H14.9825C14.9056 2.31249 14.5781 1.67742 14.0624 1.21621C13.5468 0.755009 12.8793 0.500021 12.1875 0.5ZM7.8125 2.375H12.1875C12.4361 2.375 12.6746 2.47377 12.8504 2.64959C13.0262 2.8254 13.125 3.06386 13.125 3.3125C13.125 3.56114 13.0262 3.7996 12.8504 3.97541C12.6746 4.15123 12.4361 4.25 12.1875 4.25H7.8125C7.56386 4.25 7.3254 4.15123 7.14959 3.97541C6.97377 3.7996 6.875 3.56114 6.875 3.3125C6.875 3.06386 6.97377 2.8254 7.14959 2.64959C7.3254 2.47377 7.56386 2.375 7.8125 2.375ZM10.625 10.8125C10.625 10.5639 10.7238 10.3254 10.8996 10.1496C11.0754 9.97377 11.3139 9.875 11.5625 9.875H15.9375C16.1861 9.875 16.4246 9.97377 16.6004 10.1496C16.7762 10.3254 16.875 10.5639 16.875 10.8125C16.875 11.0611 16.7762 11.2996 16.6004 11.4754C16.4246 11.6512 16.1861 11.75 15.9375 11.75H11.5625C11.3139 11.75 11.0754 11.6512 10.8996 11.4754C10.7238 11.2996 10.625 11.0611 10.625 10.8125ZM11.5625 16.75H15.9375C16.1861 16.75 16.4246 16.8488 16.6004 17.0246C16.7762 17.2004 16.875 17.4389 16.875 17.6875C16.875 17.9361 16.7762 18.1746 16.6004 18.3504C16.4246 18.5262 16.1861 18.625 15.9375 18.625H11.5625C11.3139 18.625 11.0754 18.5262 10.8996 18.3504C10.7238 18.1746 10.625 17.9361 10.625 17.6875C10.625 17.4389 10.7238 17.2004 10.8996 17.0246C11.0754 16.8488 11.3139 16.75 11.5625 16.75ZM8.475 10.225L5.975 12.725C5.79922 12.9006 5.56094 12.9992 5.3125 12.9992C5.06406 12.9992 4.82578 12.9006 4.65 12.725L3.4 11.475C3.30789 11.3892 3.23401 11.2857 3.18277 11.1707C3.13153 11.0557 3.10398 10.9315 3.10176 10.8057C3.09954 10.6798 3.1227 10.5547 3.16985 10.438C3.217 10.3213 3.28718 10.2152 3.3762 10.1262C3.46523 10.0372 3.57127 9.967 3.688 9.91985C3.80474 9.8727 3.92977 9.84954 4.05565 9.85176C4.18153 9.85398 4.30567 9.88153 4.42067 9.93277C4.53567 9.98401 4.63917 10.0579 4.725 10.15L5.3125 10.7375L7.15 8.9C7.23583 8.80789 7.33933 8.73401 7.45433 8.68277C7.56933 8.63153 7.69347 8.60398 7.81935 8.60176C7.94523 8.59954 8.07026 8.6227 8.187 8.66985C8.30373 8.717 8.40977 8.78718 8.4988 8.8762C8.58782 8.96523 8.658 9.07127 8.70515 9.188C8.7523 9.30474 8.77546 9.42977 8.77324 9.55565C8.77102 9.68153 8.74347 9.80567 8.69223 9.92067C8.64099 10.0357 8.56711 10.1392 8.475 10.225ZM8.475 15.775C8.65056 15.9508 8.74918 16.1891 8.74918 16.4375C8.74918 16.6859 8.65056 16.9242 8.475 17.1L5.975 19.6C5.79922 19.7756 5.56094 19.8742 5.3125 19.8742C5.06406 19.8742 4.82578 19.7756 4.65 19.6L3.4 18.35C3.30789 18.2642 3.23401 18.1607 3.18277 18.0457C3.13153 17.9307 3.10398 17.8065 3.10176 17.6807C3.09954 17.5548 3.1227 17.4297 3.16985 17.313C3.217 17.1963 3.28718 17.0902 3.3762 17.0012C3.46523 16.9122 3.57127 16.842 3.688 16.7948C3.80474 16.7477 3.92977 16.7245 4.05565 16.7268C4.18153 16.729 4.30567 16.7565 4.42067 16.8078C4.53567 16.859 4.63917 16.9329 4.725 17.025L5.3125 17.6125L7.15 15.775C7.32578 15.5994 7.56406 15.5008 7.8125 15.5008C8.06094 15.5008 8.29922 15.5994 8.475 15.775Z" fill="black"/>
</svg>
