<svg width="30" height="30" viewBox="0 0 30 30" fill="none" xmlns="http://www.w3.org/2000/svg">
<path d="M24 25.5C24 26.6935 23.5259 27.8381 22.682 28.682C21.8381 29.5259 20.6935 30 19.5 30H16.5C15.3065 30 14.1619 29.5259 13.318 28.682C12.4741 27.8381 12 26.6935 12 25.5C12 24.3065 12.4741 23.1619 13.318 22.318C14.1619 21.4741 15.3065 21 16.5 21H19.5C20.0108 20.9992 20.5181 21.0855 21 21.255V1.5L30 0V6L24 7.005V25.5ZM0 4.5H18V7.5H0V4.5ZM0 10.5H18V13.5H0V10.5ZM0 16.5H18V19.5H0V16.5ZM0 22.5H9V25.5H0V22.5Z" fill="black"/>
</svg>
