<svg width="30" height="30" viewBox="0 0 30 30" fill="none" xmlns="http://www.w3.org/2000/svg">
<mask id="mask0_3282_41" style="mask-type:luminance" maskUnits="userSpaceOnUse" x="0" y="0" width="30" height="30">
<path d="M0 0H30V30H0V0Z" fill="white"/>
</mask>
<g mask="url(#mask0_3282_41)">
<path d="M15 18.125C15.8288 18.125 16.6237 17.7958 17.2097 17.2097C17.7958 16.6237 18.125 15.8288 18.125 15C18.125 14.1712 17.7958 13.3763 17.2097 12.7903C16.6237 12.2042 15.8288 11.875 15 11.875C14.1712 11.875 13.3763 12.2042 12.7903 12.7903C12.2042 13.3763 11.875 14.1712 11.875 15C11.875 15.8288 12.2042 16.6237 12.7903 17.2097C13.3763 17.7958 14.1712 18.125 15 18.125Z" fill="black"/>
<path fill-rule="evenodd" clip-rule="evenodd" d="M15 21.25C18.4519 21.25 21.25 18.4519 21.25 15C21.25 11.5481 18.4519 8.75 15 8.75C11.5481 8.75 8.75 11.5481 8.75 15C8.75 18.4519 11.5481 21.25 15 21.25ZM15 20C16.3261 20 17.5979 19.4732 18.5355 18.5355C19.4732 17.5979 20 16.3261 20 15C20 13.6739 19.4732 12.4021 18.5355 11.4645C17.5979 10.5268 16.3261 10 15 10C13.6739 10 12.4021 10.5268 11.4645 11.4645C10.5268 12.4021 10 13.6739 10 15C10 16.3261 10.5268 17.5979 11.4645 18.5355C12.4021 19.4732 13.6739 20 15 20Z" fill="black"/>
<path fill-rule="evenodd" clip-rule="evenodd" d="M30 0H0V30H30V0ZM12.5 3.75V4.50125C12.0837 8.645 10.6906 9.22625 6.64688 7.29062L6.5075 7.20937L4.0075 11.5406L4.59 11.8769C7.9275 14.2456 7.92812 15.7225 4.65438 18.0862L4.0075 18.46L6.5075 22.79L6.77875 22.6338C10.7381 20.7463 12.0812 21.38 12.5 25.5212V26.25H17.5V26.06L17.5169 26.2656C17.8344 21.5925 19.0444 20.6988 23.0169 22.5156L23.4925 22.7906L25.98 18.4819L25.9925 18.46L25.7075 18.295C22.0206 15.7487 22.0588 14.2431 25.7488 11.6806L25.9925 11.54L23.4925 7.21L23.0612 7.45938C19.1637 9.27688 17.8862 8.5 17.5 4.20875V3.75H12.5Z" fill="black"/>
</g>
</svg>
